<svg width="387" height="387" viewBox="0 0 387 387" fill="none" xmlns="http://www.w3.org/2000/svg">
<path d="M255.908 36.5173C255.908 36.5173 196.635 15.48 138.453 49.0019C80.2715 82.5239 50.906 149.165 25.6968 202.525C0.487622 255.884 14.9924 310.165 59.4122 334.879C103.832 359.593 134.034 323.145 196.341 321.373C258.648 319.6 275.405 328.501 327.147 293.3C378.888 258.098 388.161 175.001 347.379 113.492C306.597 51.9819 255.908 36.5173 255.908 36.5173Z" fill="#4361EE"/>
<path opacity="0.8" d="M255.908 36.5173C255.908 36.5173 196.635 15.48 138.453 49.0019C80.2715 82.5239 50.906 149.165 25.6968 202.525C0.487622 255.884 14.9924 310.165 59.4122 334.879C103.832 359.593 134.034 323.145 196.341 321.373C258.648 319.6 275.405 328.501 327.147 293.3C378.888 258.098 388.161 175.001 347.379 113.492C306.597 51.9819 255.908 36.5173 255.908 36.5173Z" fill="white"/>
<path d="M315.018 313.787C313.504 310.601 313.164 306.983 314.058 303.571C315.537 297.742 316.078 298.718 314.53 295.366C312.982 292.015 311.659 291.326 312.572 288.447C313.485 285.567 315.072 281.07 314.499 278.346C313.927 275.621 312.688 274.476 313.246 271.558C313.803 268.64 315.568 267.2 314.693 263.988C313.818 260.776 312.371 260.892 312.928 257.974C313.485 255.056 314.275 254.793 314.05 252.138C313.864 250.807 314.002 249.45 314.453 248.183C314.453 248.183 315.459 252.347 316.117 254.654C316.721 256.361 316.873 258.195 316.558 259.979C316.233 261.658 320.049 264.569 320.165 265.9C320.281 267.231 321.086 268.694 319.817 271.511C318.547 274.329 318.23 276.008 318.965 277.889C319.701 279.77 320.513 279.491 319.739 283.307C318.965 287.123 316.829 287.115 318.455 290.041C320.08 292.967 321.055 293.594 320.304 295.637C319.554 297.68 318.362 300.064 318.826 301.458C319.089 302.154 319.416 302.825 319.801 303.462C320.727 305.107 321.037 307.028 320.676 308.88L320.459 310.033L321.171 315.838L317.712 318.671C317.712 318.671 316.148 317.495 315.018 313.787Z" fill="#28991F"/>
<path d="M311.04 314.29C310.04 313.176 309.272 311.874 308.78 310.461C308.289 309.047 308.083 307.549 308.176 306.055C308.532 301.04 309.252 301.752 307.1 299.252C304.948 296.752 303.524 296.388 303.88 293.88C304.236 291.372 304.956 287.433 303.88 285.281C302.804 283.129 301.372 282.417 301.372 279.917C301.372 277.417 302.804 275.977 301.372 273.47C299.94 270.962 298.509 271.318 298.509 268.826C298.509 266.333 299.221 264.182 298.509 262.022C297.797 259.863 298.261 260.319 298.261 260.319C298.261 260.319 299.94 263.818 301.016 265.606C302.092 267.394 302.448 268.47 302.448 269.902C302.448 271.333 306.744 273.129 307.092 274.197C307.441 275.265 308.524 276.349 307.812 278.841C307.1 281.334 307.092 282.781 308.168 284.213C309.244 285.645 309.956 285.281 309.956 288.508C309.956 291.736 307.812 292.084 309.956 294.236C312.1 296.388 313.184 296.744 312.82 298.532C312.456 300.32 311.752 302.471 312.464 303.547C312.734 303.922 313.034 304.274 313.362 304.6C314.849 306.132 315.682 308.184 315.684 310.32L317.479 314.964L314.616 317.828C314.616 317.828 312.828 317.154 311.04 314.29Z" fill="#28991F"/>
<path d="M331.45 314.29C332.45 313.176 333.218 311.874 333.709 310.461C334.201 309.047 334.407 307.549 334.314 306.055C333.958 301.04 333.238 301.752 335.39 299.252C337.541 296.752 338.966 296.388 338.61 293.88C338.253 291.372 337.534 287.433 338.61 285.281C339.685 283.129 341.117 282.417 341.117 279.917C341.117 277.417 339.685 275.977 341.117 273.47C342.549 270.962 343.981 271.318 343.981 268.826C343.981 266.333 343.269 264.182 343.981 262.022C344.693 259.863 343.842 261.109 343.842 261.109C343.842 261.109 342.549 263.818 341.473 265.606C340.397 267.394 340.041 268.47 340.041 269.902C340.041 271.333 335.746 273.129 335.397 274.197C335.049 275.265 333.966 276.349 334.678 278.841C335.39 281.334 335.397 282.781 334.322 284.213C333.246 285.645 332.534 285.281 332.534 288.509C332.534 291.736 334.678 292.084 332.534 294.236C330.39 296.388 329.306 296.744 329.67 298.532C330.034 300.32 330.738 302.471 330.026 303.547C329.759 303.916 329.464 304.262 329.144 304.584C327.652 306.133 326.819 308.2 326.822 310.351L325.026 314.995L327.89 317.859C327.89 317.859 329.662 317.154 331.45 314.29Z" fill="#28991F"/>
<path d="M325.142 315.188C325.795 314.165 326.238 313.022 326.442 311.826C326.647 310.629 326.61 309.404 326.334 308.222C325.39 304.275 324.917 304.941 326.295 302.665C327.673 300.389 328.772 299.91 328.153 297.967C327.534 296.024 326.45 292.974 327.023 291.125C327.596 289.275 328.648 288.509 328.315 286.481C327.982 284.453 326.659 283.539 327.464 281.349C328.269 279.159 329.469 279.267 329.136 277.27C328.803 275.273 327.952 273.655 328.238 271.852C328.524 270.049 327.905 270.513 327.905 270.513C327.612 272.045 327.214 273.556 326.713 275.033C326.164 276.151 325.964 277.407 326.14 278.64C326.326 279.786 323.145 281.775 322.998 282.673C322.851 283.57 322.139 284.577 323.044 286.473C323.95 288.369 324.128 289.515 323.462 290.8C322.797 292.084 322.177 291.891 322.603 294.461C323.029 297.03 324.786 297.022 323.377 299.019C321.969 301.016 321.14 301.434 321.667 302.82C322.193 304.205 323.037 305.807 322.611 306.759C321.984 307.815 321.266 308.815 320.467 309.747L320.939 312.603L320.126 316.543L322.781 318.447C322.781 318.447 324.089 317.704 325.142 315.188Z" fill="#28991F"/>
<path d="M335.637 312.27L334.801 333.269H332.472V349.461H308.834V333.269H306.651L305.815 312.27H335.637Z" fill="#263238" stroke="#263238" stroke-miterlimit="10"/>
<path d="M306.651 333.269H305.614V372.294H308.834V349.461" stroke="#263238" stroke-miterlimit="10"/>
<path d="M334.801 333.269H335.692V372.294H332.464V349.461" stroke="#263238" stroke-miterlimit="10"/>
<path d="M276.388 65.79C277.445 60.1504 276.814 54.3243 274.574 49.0417C272.334 43.7591 268.585 39.2551 263.797 36.0939C259.009 32.9327 253.394 31.2551 247.656 31.2712C241.918 31.2873 236.313 32.9965 231.542 36.1845C228.078 27.7629 221.797 20.8049 213.773 16.4985C205.75 12.1921 196.48 10.8043 187.547 12.5721C178.613 14.34 170.571 19.1537 164.792 26.1916C159.013 33.2294 155.856 42.055 155.86 51.1614C155.86 51.649 155.86 52.1212 155.86 52.601C150.209 54.2064 145.282 57.7069 141.906 62.515C138.531 67.323 136.912 73.146 137.321 79.0065C137.73 84.867 140.143 90.4083 144.155 94.7004C148.166 98.9925 153.532 101.774 159.351 102.578V102.849H275.142C279.866 102.714 284.362 100.783 287.712 97.4487C291.063 94.1148 293.016 89.629 293.175 84.905C293.334 80.181 291.686 75.5742 288.567 72.0227C285.448 68.4713 281.093 66.2424 276.388 65.79Z" stroke="#263238" stroke-linecap="round" stroke-linejoin="round"/>
<path d="M100.248 103.964C100.385 103.239 100.455 102.503 100.457 101.766C100.452 99.6049 99.8622 97.4861 98.7498 95.6338C97.6375 93.7815 96.0444 92.265 94.1396 91.2452C92.2349 90.2253 90.0895 89.7402 87.9313 89.8414C85.7731 89.9425 83.6825 90.6261 81.8815 91.8196C80.4565 88.3716 77.8802 85.5241 74.5915 83.7622C71.3028 82.0003 67.505 81.4329 63.845 82.1567C60.1849 82.8805 56.889 84.8507 54.5184 87.7318C52.1479 90.6128 50.8494 94.2265 50.8441 97.9574C50.8441 98.1587 50.8441 98.3522 50.8441 98.5457C48.5252 99.2027 46.5032 100.638 45.1176 102.61C43.7321 104.582 43.0675 106.971 43.2355 109.375C43.4034 111.779 44.3938 114.052 46.04 115.813C47.6863 117.573 49.8883 118.713 52.276 119.041V119.196H99.7454C101.706 119.178 103.584 118.403 104.987 117.034C106.391 115.665 107.211 113.807 107.278 111.847C107.345 109.888 106.653 107.978 105.346 106.517C104.039 105.055 102.219 104.154 100.264 104.002L100.248 103.964Z" stroke="#263238" stroke-linecap="round" stroke-linejoin="round"/>
<path d="M316.311 24.6829C316.406 24.2011 316.455 23.7112 316.458 23.22C316.456 21.779 316.064 20.3653 315.322 19.1297C314.581 17.8941 313.518 16.8828 312.247 16.2036C310.976 15.5244 309.544 15.2028 308.105 15.273C306.666 15.3432 305.272 15.8027 304.074 16.6023C303.126 14.3084 301.412 12.414 299.224 11.2419C297.037 10.0699 294.51 9.69277 292.075 10.1748C289.641 10.6568 287.448 11.9681 285.872 13.8854C284.296 15.8026 283.433 18.207 283.431 20.689C283.431 20.8206 283.431 20.9522 283.431 21.0838C281.877 21.508 280.517 22.4579 279.585 23.7717C278.652 25.0856 278.204 26.6821 278.316 28.2894C278.428 29.8966 279.094 31.4153 280.2 32.5867C281.307 33.7582 282.785 34.5099 284.383 34.7139V34.83H315.962C317.266 34.8167 318.515 34.3007 319.448 33.3894C320.381 32.4782 320.926 31.2421 320.97 29.9388C321.014 28.6354 320.553 27.3654 319.683 26.3935C318.814 25.4215 317.603 24.8226 316.303 24.7216L316.311 24.6829Z" stroke="#263238" stroke-linecap="round" stroke-linejoin="round"/>
<path d="M267.1 138.097H226.782L225.102 141.193C224.196 142.825 222.87 144.185 221.262 145.131C219.653 146.078 217.82 146.578 215.954 146.578C214.087 146.578 212.255 146.078 210.646 145.131C209.037 144.185 207.711 142.825 206.805 141.193L205.125 138.097H164.777C163.768 138.084 162.765 138.269 161.828 138.643C160.89 139.017 160.036 139.572 159.313 140.277C158.589 140.981 158.012 141.821 157.614 142.749C157.215 143.676 157.004 144.673 156.99 145.682V353.377C157.003 354.387 157.214 355.385 157.612 356.314C158.01 357.242 158.587 358.083 159.31 358.788C160.033 359.493 160.888 360.049 161.826 360.423C162.764 360.798 163.767 360.984 164.777 360.97H267.1C268.11 360.984 269.112 360.798 270.05 360.423C270.988 360.049 271.844 359.493 272.567 358.788C273.29 358.083 273.867 357.242 274.265 356.314C274.663 355.385 274.874 354.387 274.886 353.377V145.682C274.873 144.673 274.661 143.676 274.263 142.749C273.864 141.821 273.287 140.981 272.564 140.277C271.841 139.572 270.986 139.017 270.049 138.643C269.111 138.269 268.109 138.084 267.1 138.097Z" fill="white"/>
<path d="M271.837 150.636H160.853V357.325H271.837V150.636Z" fill="white"/>
<path d="M204.112 241.488C204.112 242.076 204.344 242.432 204.886 242.432C205.427 242.432 205.66 242.076 205.66 241.488V236.527H206.341V241.488C206.341 242.471 205.884 243.129 204.878 243.129C203.872 243.129 203.43 242.471 203.43 241.488V236.558H204.15L204.112 241.488Z" fill="#263238"/>
<path d="M208.438 236.55C209.46 236.55 209.893 237.154 209.893 238.137V238.911C209.893 239.94 209.413 240.459 208.384 240.459H207.742V243.036H207.014V236.542L208.438 236.55ZM208.384 239.832C208.918 239.832 209.158 239.584 209.158 238.965V238.098C209.158 237.502 208.941 237.208 208.384 237.208H207.687V239.832H208.384Z" fill="#263238"/>
<path d="M210.528 243.036V236.542H211.256V242.378H213.113V243.036H210.528Z" fill="#263238"/>
<path d="M213.562 238.113C213.562 237.123 214.057 236.48 215.048 236.48C216.039 236.48 216.542 237.123 216.542 238.113V241.488C216.542 242.471 216.054 243.121 215.048 243.121C214.042 243.121 213.562 242.471 213.562 241.488V238.113ZM214.282 241.511C214.282 242.107 214.53 242.455 215.056 242.455C215.582 242.455 215.83 242.107 215.83 241.511V238.082C215.83 237.494 215.59 237.138 215.056 237.138C214.522 237.138 214.282 237.494 214.282 238.082V241.511Z" fill="#263238"/>
<path d="M217.958 241.736L217.703 243.044H217.037L218.283 236.55H219.328L220.59 243.036H219.816L219.568 241.728L217.958 241.736ZM218.051 241.116H219.499L218.763 237.363L218.051 241.116Z" fill="#263238"/>
<path d="M222.664 236.55C223.678 236.55 224.143 237.161 224.143 238.16V241.442C224.143 242.432 223.678 243.044 222.664 243.044H221.116V236.55H222.664ZM222.664 242.386C223.183 242.386 223.438 242.061 223.438 241.465V238.129C223.438 237.533 223.183 237.208 222.664 237.208H221.89V242.386H222.664Z" fill="#263238"/>
<path d="M225.544 236.55V243.036H224.824V236.542L225.544 236.55Z" fill="#263238"/>
<path d="M226.929 243.036H226.279V236.542H227.2L228.702 241.24V236.542H229.344V243.036H228.57L226.906 237.781L226.929 243.036Z" fill="#263238"/>
<path d="M232.974 238.113V238.671H232.285V238.082C232.285 237.494 232.053 237.138 231.511 237.138C230.969 237.138 230.737 237.494 230.737 238.082V241.488C230.737 242.076 230.977 242.432 231.511 242.432C232.045 242.432 232.285 242.076 232.285 241.488V240.188H231.619V239.545H232.974V241.488C232.974 242.471 232.51 243.121 231.503 243.121C230.497 243.121 230.048 242.471 230.048 241.488V238.121C230.048 237.138 230.513 236.488 231.503 236.488C232.494 236.488 232.974 237.13 232.974 238.113Z" fill="#263238"/>
<path d="M222.277 245.83H189.119V251.403H222.277V245.83Z" fill="white" stroke="#263238" stroke-linecap="round" stroke-linejoin="round"/>
<path d="M246.426 245.83H189.119V251.403H246.426V245.83Z" stroke="#263238" stroke-miterlimit="10"/>
<path d="M266.782 141.077H258.648V145.535H266.782V141.077Z" stroke="#263238" stroke-width="0.821067" stroke-linecap="round" stroke-linejoin="round"/>
<path d="M264.987 141.077H258.648V145.535H264.987V141.077Z" fill="#263238" stroke="#263238" stroke-width="0.725073" stroke-linecap="round" stroke-linejoin="round"/>
<path d="M267.905 142.323H266.759V144.289H267.905V142.323Z" fill="#263238" stroke="#263238" stroke-width="0.725073" stroke-linecap="round" stroke-linejoin="round"/>
<path d="M165.195 142.462H163.701V145.017H165.195V142.462Z" fill="#263238" stroke="#263238" stroke-width="0.883086" stroke-linecap="round" stroke-linejoin="round"/>
<path d="M167.54 141.565H166.046V145.017H167.54V141.565Z" fill="#263238" stroke="#263238" stroke-width="0.883086" stroke-linecap="round" stroke-linejoin="round"/>
<path d="M169.885 140.504H168.391V145.017H169.885V140.504Z" fill="#263238" stroke="#263238" stroke-width="0.883086" stroke-linecap="round" stroke-linejoin="round"/>
<path d="M160.597 147.06H271.264" stroke="#263238" stroke-linecap="round" stroke-linejoin="round"/>
<path d="M280.629 209.475C280.847 209.475 281.057 209.389 281.212 209.236C281.367 209.082 281.455 208.873 281.457 208.655V186.534C281.455 186.316 281.367 186.107 281.212 185.953C281.057 185.8 280.847 185.714 280.629 185.714H278.485V143.383C278.485 140.563 277.365 137.858 275.37 135.864C273.376 133.869 270.671 132.749 267.85 132.749H164.026C161.206 132.749 158.501 133.869 156.506 135.864C154.512 137.858 153.391 140.563 153.391 143.383V361.651C153.39 363.049 153.665 364.432 154.199 365.724C154.733 367.015 155.516 368.188 156.503 369.176C157.491 370.165 158.664 370.949 159.955 371.484C161.245 372.019 162.629 372.294 164.026 372.294H267.85C270.671 372.294 273.376 371.174 275.37 369.179C277.365 367.185 278.485 364.48 278.485 361.659V228.531H280.629C280.849 228.531 281.059 228.444 281.215 228.289C281.37 228.133 281.457 227.923 281.457 227.703V217.835C281.457 217.726 281.436 217.619 281.394 217.519C281.352 217.419 281.291 217.328 281.214 217.252C281.137 217.175 281.046 217.115 280.946 217.074C280.845 217.034 280.738 217.013 280.629 217.014H278.485V209.475H280.629ZM274.886 353.377C274.874 354.387 274.663 355.385 274.265 356.314C273.867 357.242 273.29 358.083 272.567 358.788C271.844 359.493 270.988 360.049 270.05 360.423C269.112 360.798 268.11 360.984 267.1 360.97H164.777C163.767 360.984 162.764 360.798 161.826 360.423C160.888 360.049 160.033 359.493 159.31 358.788C158.587 358.083 158.01 357.242 157.612 356.314C157.214 355.385 157.003 354.387 156.99 353.377V145.682C157.004 144.673 157.215 143.676 157.614 142.749C158.012 141.821 158.589 140.981 159.313 140.277C160.036 139.572 160.89 139.017 161.828 138.643C162.765 138.269 163.768 138.084 164.777 138.097H205.11L206.79 141.193C207.696 142.825 209.022 144.185 210.63 145.131C212.239 146.078 214.072 146.577 215.938 146.577C217.805 146.577 219.637 146.078 221.246 145.131C222.855 144.185 224.181 142.825 225.087 141.193L226.767 138.097H267.1C268.109 138.084 269.111 138.269 270.049 138.643C270.986 139.017 271.841 139.572 272.564 140.277C273.287 140.981 273.864 141.821 274.263 142.749C274.661 143.676 274.873 144.673 274.886 145.682V353.377Z" fill="#263238" stroke="#263238" stroke-linecap="round" stroke-linejoin="round"/>
<path d="M202.875 284.724L172.485 289.163L177.025 320.242L207.415 315.803L202.875 284.724Z" fill="#3A0CA3" stroke="#263238" stroke-linecap="round" stroke-linejoin="round"/>
<path d="M197.37 296.21L191.387 304.817L185.636 304.043C185.354 304.007 185.068 304.036 184.8 304.129C184.531 304.222 184.288 304.375 184.088 304.577L175.93 312.696L177.037 320.25L207.432 315.792L205.11 299.817L200.087 295.815C199.887 295.651 199.655 295.531 199.406 295.461C199.158 295.392 198.897 295.376 198.641 295.413C198.386 295.45 198.14 295.54 197.922 295.677C197.703 295.814 197.515 295.996 197.37 296.21Z" fill="white" stroke="#263238" stroke-linecap="round" stroke-linejoin="round"/>
<path d="M185.559 299.793C186.341 299.697 187.076 299.371 187.671 298.855C188.267 298.339 188.695 297.657 188.901 296.897C189.107 296.137 189.082 295.332 188.828 294.586C188.575 293.84 188.105 293.187 187.479 292.709C186.853 292.231 186.098 291.951 185.312 291.904C184.526 291.857 183.743 292.046 183.065 292.445C182.386 292.845 181.842 293.438 181.501 294.149C181.161 294.859 181.041 295.655 181.155 296.434C181.223 296.944 181.392 297.435 181.65 297.88C181.909 298.325 182.252 298.714 182.661 299.026C183.07 299.338 183.536 299.566 184.034 299.698C184.531 299.83 185.049 299.862 185.559 299.793Z" fill="white" stroke="#263238" stroke-linecap="round" stroke-linejoin="round"/>
<path d="M249.77 49.5873L219.38 54.0261L223.92 85.1053L254.31 80.6665L249.77 49.5873Z" fill="#7209B7" stroke="#263238" stroke-linecap="round" stroke-linejoin="round"/>
<path d="M244.251 61.0686L238.268 69.66L232.517 68.886C232.236 68.8487 231.95 68.8767 231.682 68.968C231.413 69.0593 231.169 69.2114 230.969 69.4123L222.827 77.5239L223.918 85.14L254.305 80.6972L251.983 64.7141L246.952 60.7126C246.756 60.5482 246.528 60.4264 246.282 60.3549C246.036 60.2835 245.778 60.2638 245.524 60.2973C245.27 60.3308 245.025 60.4166 244.806 60.5494C244.587 60.6821 244.398 60.859 244.251 61.0686Z" fill="white" stroke="#263238" stroke-linecap="round" stroke-linejoin="round"/>
<path d="M232.448 64.66C233.229 64.5625 233.964 64.2345 234.558 63.7179C235.152 63.2012 235.578 62.5193 235.783 61.7591C235.988 60.9989 235.962 60.1949 235.708 59.4496C235.454 58.7043 234.984 58.0516 234.358 57.5746C233.731 57.0976 232.977 56.8181 232.191 56.7716C231.405 56.7251 230.623 56.9138 229.945 57.3136C229.267 57.7134 228.723 58.3062 228.383 59.0163C228.043 59.7264 227.922 60.5218 228.036 61.3008C228.104 61.8113 228.273 62.3033 228.532 62.7485C228.791 63.1938 229.135 63.5836 229.545 63.8956C229.955 64.2076 230.422 64.4358 230.92 64.5669C231.418 64.6981 231.937 64.7297 232.448 64.66Z" fill="white" stroke="#263238" stroke-linecap="round" stroke-linejoin="round"/>
<path d="M255.46 159.951L226.898 148.894L215.591 178.105L244.153 189.161L255.46 159.951Z" fill="#4CC9F0" stroke="#263238" stroke-width="0.997246" stroke-linecap="round" stroke-linejoin="round"/>
<path d="M245.25 168.059L235.799 172.602L231.155 169.096C230.927 168.923 230.663 168.806 230.382 168.752C230.102 168.698 229.813 168.71 229.537 168.786L218.485 171.828L215.722 178.941L244.36 190.056L250.203 175.001L247.812 169.042C247.716 168.802 247.573 168.585 247.389 168.403C247.206 168.222 246.987 168.081 246.746 167.988C246.505 167.896 246.248 167.855 245.991 167.867C245.733 167.879 245.481 167.944 245.25 168.059Z" fill="white" stroke="#263238" stroke-linecap="round" stroke-linejoin="round"/>
<path d="M233.206 165.357C233.934 165.659 234.735 165.738 235.507 165.583C236.279 165.427 236.988 165.045 237.542 164.486C238.096 163.926 238.471 163.213 238.619 162.44C238.766 161.666 238.68 160.866 238.37 160.141C238.061 159.417 237.543 158.801 236.882 158.372C236.221 157.944 235.447 157.722 234.659 157.735C233.872 157.748 233.106 157.996 232.46 158.447C231.813 158.897 231.316 159.53 231.031 160.264C230.644 161.228 230.656 162.306 231.064 163.261C231.472 164.216 232.243 164.97 233.206 165.357Z" fill="white" stroke="#263238" stroke-linecap="round" stroke-linejoin="round"/>
<path d="M204.608 198.799L174.402 193.244L168.722 224.135L198.928 229.69L204.608 198.799Z" fill="#7209B7" stroke="#263238" stroke-linecap="round" stroke-linejoin="round"/>
<path d="M196.093 212.478L180.427 199.135L176.704 219.375L196.093 212.478Z" fill="white" stroke="#263238" stroke-linecap="round" stroke-linejoin="round"/>
<path d="M254.213 306.945H223.5V338.354H254.213V306.945Z" fill="#4361EE" stroke="#263238" stroke-linecap="round" stroke-linejoin="round"/>
<path d="M248.307 321.938L230.482 311.643V332.224L248.307 321.938Z" fill="white" stroke="#263238" stroke-linecap="round" stroke-linejoin="round"/>
<path d="M207.952 80.5196L180.843 94.9524L195.603 122.677L222.712 108.244L207.952 80.5196Z" fill="#4361EE" stroke="#263238" stroke-linecap="round" stroke-linejoin="round"/>
<path d="M209.785 96.5333L189.212 95.8289L198.887 113.995L209.785 96.5333Z" fill="white" stroke="#263238" stroke-linecap="round" stroke-linejoin="round"/>
<g opacity="0.2">
<path d="M329.631 192.556L316.852 176.472L304.074 192.556H309.074V216.766H324.631V192.556H329.631Z" stroke="black" stroke-linecap="round" stroke-linejoin="round"/>
<path d="M235.327 271.868L222.556 255.784L209.777 271.868H214.777V296.086H230.335V271.868H235.327Z" stroke="black" stroke-linecap="round" stroke-linejoin="round"/>
<path d="M271.086 218.044L258.307 201.96L245.536 218.044H250.528V242.254H266.086V218.044H271.086Z" stroke="black" stroke-linecap="round" stroke-linejoin="round"/>
<path d="M143.298 192.966L130.52 176.882L117.749 192.966H122.749V217.177H138.306V192.966H143.298Z" stroke="black" stroke-linecap="round" stroke-linejoin="round"/>
</g>
<g opacity="0.2">
<path d="M144.142 106.51L131.363 90.4264L118.585 106.51H123.585V130.721H139.142V106.51H144.142Z" stroke="black" stroke-linecap="round" stroke-linejoin="round"/>
<path d="M319.825 122.903L307.046 106.82L294.275 122.903H299.267V147.114H314.832V122.903H319.825Z" stroke="black" stroke-linecap="round" stroke-linejoin="round"/>
<path d="M201.41 165.373L188.632 149.289L175.861 165.373H180.853V189.591H196.41V165.373H201.41Z" stroke="black" stroke-linecap="round" stroke-linejoin="round"/>
</g>
<path d="M44.4276 344.105C44.0096 344.244 40.2325 357.797 39.2573 359.585C38.282 361.373 40.8053 362.936 42.0514 363.919C43.2976 364.902 46.9431 369.229 50.9989 370.63C55.0546 372.031 60.6429 371.744 59.9386 370.491C59.2342 369.237 53.9323 366.574 52.6707 364.895C51.4091 363.215 49.7372 356.233 49.7372 356.233L54.7682 346.45L44.4276 344.105Z" fill="white" stroke="#263238" stroke-linecap="round" stroke-linejoin="round"/>
<path d="M54.745 346.528L54.4509 346.404L44.4276 344.082C43.9623 345.053 43.5992 346.07 43.344 347.116C46.1419 348.883 49.1504 350.293 52.2992 351.311L54.745 346.528Z" fill="#263238" stroke="#263238" stroke-linecap="round" stroke-linejoin="round"/>
<path d="M52.6707 364.926C51.7419 363.687 50.5886 359.562 50.0468 357.487C49.233 357.866 48.4709 358.347 47.779 358.919C47.1257 359.483 46.562 360.144 46.1072 360.877L40.6427 355.738C40.2585 357.055 39.7959 358.347 39.2573 359.608C38.2743 361.427 40.8053 362.96 42.0514 363.943C43.2976 364.926 46.9431 369.252 50.9989 370.653C55.0546 372.054 60.6429 371.768 59.9386 370.514C59.2342 369.26 53.9323 366.605 52.6707 364.926Z" fill="#4361EE" stroke="#263238" stroke-linecap="round" stroke-linejoin="round"/>
<path d="M98.9327 348.014C98.9327 348.014 106.479 369.686 107.044 370.94C107.609 372.193 109.42 372.487 110.674 372.193C111.928 371.899 117.106 369.26 121.441 368.703C125.775 368.145 128.708 364.647 128.848 363.532C128.987 362.418 118.925 364.368 115.984 363.532C113.043 362.696 110.566 360.034 110.256 359.059C109.947 358.083 109.002 343.579 109.002 343.579L98.9327 348.014Z" fill="white" stroke="#263238" stroke-linecap="round" stroke-linejoin="round"/>
<path d="M109.002 343.54L98.9404 348.014L99.8769 350.684C103.15 350.238 106.332 349.277 109.304 347.836C109.134 345.405 109.002 343.54 109.002 343.54Z" fill="#263238" stroke="#263238" stroke-linecap="round" stroke-linejoin="round"/>
<path d="M121.441 368.703C125.767 368.145 128.708 364.647 128.848 363.532C128.987 362.418 118.925 364.368 115.984 363.532C114.465 363.047 113.073 362.233 111.905 361.148C111.851 361.427 111.815 361.709 111.797 361.992C111.693 362.925 111.74 363.868 111.936 364.786C111.936 364.786 108.12 366.744 105.883 367.782C106.487 369.484 106.92 370.669 107.044 370.94C107.601 372.193 109.42 372.487 110.674 372.193C111.928 371.899 117.106 369.26 121.441 368.703Z" fill="#4361EE" stroke="#263238" stroke-linecap="round" stroke-linejoin="round"/>
<path d="M86.4713 215.946C86.4713 215.946 89.7066 214.94 94.4203 220.536C99.1339 226.132 109.126 254.723 109.126 254.723C109.126 254.723 107.067 260.327 101.758 259.445C96.4481 258.562 87.462 229.545 87.462 229.545C87.462 229.545 84.1261 213.965 86.4713 215.946Z" fill="white" stroke="#263238" stroke-linecap="round" stroke-linejoin="round"/>
<path d="M67.7095 204.723C67.7095 204.723 69.9696 211.116 68.9092 214.011C67.8488 216.906 60.7899 215.605 57.2992 219.87C53.8085 224.135 61.6878 254.336 61.6878 254.336C61.6878 254.336 53.437 270.304 51.7032 280.691C49.9694 291.078 48.9091 323.679 48.6072 325.142C48.3053 326.605 44.2186 342.712 45.0158 342.572C45.8131 342.433 52.1985 346.032 54.1955 346.698C56.1924 347.363 57.1212 347.766 57.1212 347.766C57.1212 347.766 68.3055 331.133 71.6337 323.277C74.9619 315.42 78.5532 297.456 78.5532 297.456L97.0518 346.171L109.297 342.712L107.168 299.584C107.168 299.584 105.837 283.083 101.711 272.44C98.9397 265.517 95.508 258.876 91.4636 252.61C91.4636 252.61 95.0549 239.561 93.9868 233.438C92.9187 227.316 86.4016 215.876 86.4016 215.876C86.4016 215.876 83.0811 215.737 81.7576 214.545C80.4341 213.353 78.0269 205.358 78.0269 205.358L67.7095 204.723Z" fill="#263238" stroke="#263238" stroke-linecap="round" stroke-linejoin="round"/>
<path d="M90.7592 226.008L86.9744 216.774C86.6648 216.201 86.4713 215.876 86.4713 215.876C86.4713 215.876 83.1508 215.737 81.8273 214.545C80.5037 213.353 78.0966 205.358 78.0966 205.358L67.7173 204.692C67.7173 204.692 69.9773 211.085 68.917 213.98C68.29 215.698 65.5965 215.954 62.7791 216.735C64.7507 217.951 66.264 219.786 67.0826 221.952C69.5362 228.431 71.773 231.116 71.773 231.116L90.7592 226.008Z" fill="white" stroke="#263238" stroke-linecap="round" stroke-linejoin="round"/>
<path d="M78.7545 207.486C78.352 206.271 78.0889 205.389 78.0889 205.389L67.7095 204.723C67.7095 204.723 69.5284 209.886 69.1259 213.059C72.7599 212.057 76.0755 210.138 78.7545 207.486Z" fill="#263238" stroke="#263238" stroke-linecap="round" stroke-linejoin="round"/>
<path d="M78.6229 297.487L82.4465 280.645" stroke="#858585" stroke-linecap="round" stroke-linejoin="round"/>
<path d="M44.118 340.746L43.7 343.842C45.5989 345.699 47.845 347.164 50.31 348.153C52.331 348.973 54.3986 349.674 56.502 350.25L59.598 346.195C56.6943 345.318 53.8654 344.21 51.1382 342.882C45.8285 340.366 44.4276 339.786 44.4276 339.786L44.118 340.746Z" fill="white" stroke="#263238" stroke-linecap="round" stroke-linejoin="round"/>
<path d="M94.8847 345.08L96.4327 349.136C96.4327 349.136 104.405 348.014 107.338 346.62C110.272 345.227 111.982 344.523 111.982 344.523L111.425 339.492L94.8847 345.08Z" fill="white" stroke="#263238" stroke-linecap="round" stroke-linejoin="round"/>
<path d="M94.0565 233.469C92.9961 227.347 86.4713 215.907 86.4713 215.907C85.4467 215.85 84.4317 215.678 83.4449 215.396C83.4449 215.482 83.5146 215.551 83.5456 215.636C84.2112 217.239 86.7422 224.29 86.7422 224.29L71.7034 225.884C70.8039 224.249 70.0027 222.561 69.304 220.83C68.397 218.929 66.976 217.321 65.2018 216.186C62.6321 216.828 59.3581 217.401 57.3302 219.909C53.9323 224.081 61.4169 253.191 61.711 254.336C85.8676 254.863 91.5332 252.649 91.5332 252.649C91.5332 252.649 95.1246 239.592 94.0565 233.469Z" fill="#4361EE" stroke="#263238" stroke-linecap="round" stroke-linejoin="round"/>
<path d="M119.503 233.846L88.8972 231.287L86.2799 262.586L116.885 265.145L119.503 233.846Z" fill="#F72585" stroke="#263238" stroke-linecap="round" stroke-linejoin="round"/>
<path d="M112.377 248.291L95.4729 236.55L93.7546 257.061L112.377 248.291Z" fill="white" stroke="#263238" stroke-linecap="round" stroke-linejoin="round"/>
<path d="M65.1785 223.492C65.1785 223.492 63.7157 218.036 59.3271 218.431C54.9385 218.825 52.0051 223.222 52.8023 229.746C53.5995 236.271 58.3906 261.689 59.3271 263.686C60.2636 265.683 97.2531 269.406 97.2531 269.406C97.2531 269.406 101.51 271.001 102.841 271.001C104.173 271.001 110.961 270.737 111.626 269.94C112.292 269.143 113.089 268.609 112.563 268.206C112.036 267.804 108.298 268.346 107.369 267.943C106.169 267.265 105.013 266.51 103.909 265.683C103.909 265.683 107.238 265.412 107.779 265.018C108.321 264.623 110.04 263.152 108.708 263.152C107.377 263.152 105.38 263.555 103.654 263.555C101.928 263.555 98.2361 264.878 98.2361 264.878C93.4356 263.524 88.7102 261.917 84.0796 260.064C78.4913 257.672 71.0377 254.344 71.0377 254.344L65.1785 223.492Z" fill="white" stroke="#263238" stroke-linecap="round" stroke-linejoin="round"/>
<path d="M79.0176 188.229C79.0176 188.229 82.1137 186.758 81.1539 180.11C80.1941 173.461 67.5779 173.182 60.372 175.984C53.1661 178.786 47.4617 181.704 48.762 190.087C50.0623 198.469 56.502 200.466 57.7249 201.534C58.9478 202.602 59.598 204.591 58.824 206.062C58.05 207.533 56.9587 207.254 56.9587 207.254C56.9587 207.254 56.8271 208.725 60.55 209.119C62.0916 209.244 63.6294 208.838 64.908 207.968C66.1865 207.098 67.1287 205.816 67.5779 204.336C68.1043 202.076 66.6414 198.485 68.7699 195.551C70.8984 192.618 73.2978 189.56 73.1662 187.571C73.0346 185.582 72.8953 184.769 72.8953 184.769L79.0176 188.229Z" fill="#263238" stroke="#263238" stroke-linecap="round" stroke-linejoin="round"/>
<path d="M70.8674 183.229C70.848 187.277 69.487 191.205 66.9974 194.398C62.8952 199.413 60.8054 199.87 60.8054 199.87C60.8054 199.87 59.6677 204.653 69.2343 208.074C78.8009 211.495 81.0842 205.567 81.5409 201.232C81.9976 196.898 80.8598 189.382 78.8087 187.107C76.7576 184.831 70.8674 183.229 70.8674 183.229Z" fill="white" stroke="#263238" stroke-linecap="round" stroke-linejoin="round"/>
<path d="M63.5764 201.008C63.5764 201.008 59.7064 194.63 57.6553 198.5C55.6042 202.37 58.1119 204.886 60.8441 204.886C62.3166 204.927 63.784 204.693 65.1708 204.197" fill="white"/>
<path d="M63.5764 201.008C63.5764 201.008 59.7064 194.63 57.6553 198.5C55.6042 202.37 58.1119 204.886 60.8441 204.886C62.3166 204.927 63.784 204.693 65.1708 204.197" stroke="#263238" stroke-linecap="round" stroke-linejoin="round"/>
<path d="M74.6291 189.824C74.6291 189.824 75.6972 192.215 77.1601 192.215C78.6229 192.215 80.0858 191.286 79.4201 192.989C78.7545 194.692 77.9573 195.118 77.9573 195.118" stroke="#263238" stroke-linecap="round" stroke-linejoin="round"/>
<path d="M71.0377 198.206C72.16 198.611 73.3638 198.738 74.546 198.576C75.7281 198.415 76.8535 197.969 77.8257 197.277" stroke="#263238" stroke-linecap="round" stroke-linejoin="round"/>
<path d="M72.0439 191.789C72.4 192.672 72.3535 193.531 71.9433 193.694C71.5331 193.856 70.9139 193.268 70.5578 192.378C70.2018 191.488 70.2482 190.644 70.6585 190.481C71.0687 190.319 71.6879 190.899 72.0439 191.789Z" fill="#263238"/>
<path d="M77.4 189.824C77.756 190.706 77.7096 191.565 77.2994 191.728C76.8892 191.89 76.27 191.302 75.9217 190.412C75.5734 189.522 75.6043 188.678 76.0145 188.515C76.4248 188.353 77.0672 188.933 77.4 189.824Z" fill="#263238"/>
<path d="M122.346 237.796C121.715 237.377 120.952 237.203 120.202 237.308C119.211 237.417 117.88 237.672 117.88 238.175C117.88 238.949 121.557 239.777 122.679 238.949C123.205 238.578 122.849 238.137 122.346 237.796Z" fill="white" stroke="#263238" stroke-linecap="round" stroke-linejoin="round"/>
<path d="M122.888 239.839C122.256 239.423 121.495 239.247 120.744 239.344C119.753 239.46 118.422 239.708 118.422 240.219C118.422 240.993 122.098 241.813 123.221 240.993C123.747 240.613 123.383 240.172 122.888 239.839Z" fill="white" stroke="#263238" stroke-linecap="round" stroke-linejoin="round"/>
<path d="M122.733 241.999C122.101 241.583 121.34 241.407 120.589 241.503C119.598 241.62 118.267 241.867 118.267 242.378C118.267 243.152 121.944 243.98 123.066 243.152C123.592 242.781 123.236 242.339 122.733 241.999Z" fill="white" stroke="#263238" stroke-linecap="round" stroke-linejoin="round"/>
<path d="M121.371 243.911C120.895 243.599 120.325 243.468 119.761 243.539C118.987 243.624 117.996 243.818 117.996 244.197C117.996 244.801 120.759 245.397 121.595 244.801C122.021 244.499 121.75 244.166 121.371 243.911Z" fill="white" stroke="#263238" stroke-linecap="round" stroke-linejoin="round"/>
<path d="M17.802 372.294H369.198" stroke="#263238" stroke-linecap="round" stroke-linejoin="round"/>
</svg>
