<svg width="562" height="562" viewBox="0 0 562 562" fill="none" xmlns="http://www.w3.org/2000/svg">
<path d="M414.127 188.596C367.829 139.219 297.624 110.152 231.33 133.318C176.187 152.561 130.586 200.229 105.791 253.35C88.3464 290.734 78.68 339.167 89.3018 379.912C98.5186 415.251 127.967 430.964 161.642 433.482C214.898 437.472 268.344 431.695 321.633 432.718C359.455 433.437 417.173 447.431 450.893 424.973C482.758 403.752 480.769 357.533 477.273 323.622C472.08 273.031 448.161 224.912 414.127 188.596Z" fill="#4361EE"/>
<path opacity="0.7" d="M414.127 188.596C367.829 139.219 297.624 110.152 231.33 133.318C176.187 152.561 130.586 200.229 105.791 253.35C88.3464 290.734 78.68 339.167 89.3018 379.912C98.5186 415.251 127.967 430.964 161.642 433.482C214.898 437.472 268.344 431.695 321.633 432.718C359.455 433.437 417.173 447.431 450.893 424.973C482.758 403.752 480.769 357.533 477.273 323.622C472.08 273.031 448.161 224.912 414.127 188.596Z" fill="white"/>
<path d="M134.06 352.498H109.332C109.183 352.498 109.04 352.438 108.934 352.333C108.829 352.228 108.77 352.085 108.77 351.936V314.057H101.43C101.324 314.058 101.22 314.03 101.131 313.974C101.041 313.918 100.969 313.838 100.924 313.742C100.869 313.652 100.841 313.549 100.841 313.444C100.841 313.339 100.869 313.236 100.924 313.146L121.156 287.609C121.21 287.545 121.277 287.494 121.353 287.459C121.428 287.424 121.511 287.405 121.594 287.405C121.678 287.405 121.76 287.424 121.836 287.459C121.912 287.494 121.979 287.545 122.033 287.609L142.265 313.146C142.33 313.229 142.371 313.328 142.382 313.433C142.394 313.538 142.376 313.644 142.33 313.739C142.284 313.834 142.213 313.914 142.124 313.97C142.035 314.026 141.932 314.056 141.826 314.057H134.453V351.936C134.459 352.06 134.423 352.182 134.352 352.284C134.281 352.385 134.178 352.461 134.06 352.498ZM109.916 351.374H133.52V313.495C133.52 313.346 133.579 313.203 133.685 313.097C133.79 312.992 133.933 312.933 134.082 312.933H140.826L121.718 288.868L102.61 312.933H109.354C109.503 312.933 109.646 312.992 109.751 313.097C109.857 313.203 109.916 313.346 109.916 313.495V351.374Z" fill="#4361EE"/>
<path d="M382.284 352.498H357.556C357.407 352.498 357.264 352.438 357.158 352.333C357.053 352.228 356.994 352.085 356.994 351.936V314.057H349.62C349.515 314.056 349.412 314.026 349.323 313.97C349.234 313.914 349.162 313.834 349.116 313.739C349.071 313.644 349.053 313.538 349.064 313.433C349.076 313.328 349.117 313.229 349.182 313.146L369.47 287.609C369.524 287.545 369.591 287.494 369.667 287.459C369.742 287.424 369.825 287.405 369.908 287.405C369.992 287.405 370.074 287.424 370.15 287.459C370.226 287.494 370.293 287.545 370.347 287.609L390.635 313.146C390.7 313.229 390.741 313.328 390.753 313.433C390.764 313.538 390.746 313.644 390.7 313.739C390.655 313.834 390.583 313.914 390.494 313.97C390.405 314.026 390.302 314.056 390.197 314.057H382.823V351.936C382.823 352.081 382.767 352.221 382.667 352.325C382.566 352.43 382.429 352.492 382.284 352.498ZM358.14 351.374H381.744V313.495C381.744 313.346 381.803 313.203 381.909 313.097C382.014 312.992 382.157 312.933 382.306 312.933H389.05L369.942 288.868L350.834 312.933H357.578C357.727 312.933 357.87 312.992 357.976 313.097C358.081 313.203 358.14 313.346 358.14 313.495V351.374Z" fill="#4361EE"/>
<path d="M444.913 415.385H420.185C420.036 415.385 419.893 415.326 419.788 415.221C419.682 415.115 419.623 414.972 419.623 414.823V376.945H412.283C412.178 376.944 412.075 376.914 411.986 376.858C411.897 376.802 411.825 376.721 411.78 376.626C411.734 376.532 411.716 376.426 411.727 376.321C411.739 376.216 411.78 376.117 411.845 376.034L432.077 350.508C432.131 350.444 432.198 350.393 432.274 350.358C432.349 350.323 432.432 350.304 432.515 350.304C432.599 350.304 432.681 350.323 432.757 350.358C432.833 350.393 432.9 350.444 432.954 350.508L453.186 376.034C453.251 376.117 453.292 376.216 453.303 376.321C453.315 376.426 453.297 376.532 453.251 376.626C453.205 376.721 453.134 376.802 453.045 376.858C452.956 376.914 452.853 376.944 452.747 376.945H445.374V414.823C445.376 414.957 445.331 415.086 445.247 415.189C445.162 415.292 445.044 415.362 444.913 415.385ZM420.781 414.261H444.385V376.383C444.385 376.234 444.444 376.091 444.549 375.985C444.655 375.88 444.798 375.821 444.947 375.821H451.691L432.583 351.756L413.475 375.821H420.219C420.367 375.824 420.508 375.884 420.613 375.988C420.718 376.093 420.778 376.234 420.781 376.383V414.261Z" fill="#4361EE"/>
<path d="M419.252 268.501H394.524C394.375 268.501 394.232 268.442 394.127 268.337C394.021 268.231 393.962 268.088 393.962 267.939V230.06H386.589C386.482 230.061 386.377 230.03 386.287 229.973C386.197 229.915 386.126 229.832 386.083 229.734C386.038 229.639 386.021 229.532 386.032 229.427C386.044 229.322 386.085 229.222 386.15 229.139L406.382 203.613C406.437 203.549 406.505 203.497 406.582 203.462C406.658 203.427 406.742 203.408 406.826 203.408C406.911 203.408 406.994 203.427 407.071 203.462C407.147 203.497 407.215 203.549 407.27 203.613L427.502 229.139C427.566 229.222 427.606 229.322 427.617 229.427C427.628 229.532 427.61 229.638 427.565 229.734C427.52 229.829 427.449 229.91 427.36 229.967C427.272 230.025 427.169 230.057 427.064 230.06H419.69V267.939C419.694 268.069 419.652 268.196 419.572 268.299C419.492 268.401 419.379 268.473 419.252 268.501ZM395.12 267.377H418.724V229.498C418.724 229.349 418.783 229.206 418.888 229.101C418.994 228.996 419.137 228.936 419.286 228.936H426.03L406.922 204.86L387.814 228.936H394.558C394.707 228.936 394.85 228.996 394.955 229.101C395.061 229.206 395.12 229.349 395.12 229.498V267.377Z" fill="#4361EE"/>
<path d="M185.64 272.918H160.912C160.763 272.918 160.62 272.859 160.515 272.754C160.409 272.648 160.35 272.505 160.35 272.356V234.478H152.988C152.881 234.479 152.777 234.451 152.686 234.395C152.595 234.34 152.522 234.26 152.475 234.165C152.428 234.069 152.409 233.962 152.42 233.857C152.431 233.751 152.472 233.651 152.538 233.567L172.826 208.03C172.88 207.966 172.947 207.915 173.023 207.88C173.099 207.844 173.181 207.826 173.265 207.826C173.348 207.826 173.431 207.844 173.506 207.88C173.582 207.915 173.649 207.966 173.703 208.03L193.991 233.567C194.057 233.65 194.097 233.749 194.109 233.854C194.12 233.959 194.102 234.065 194.057 234.159C194.011 234.254 193.939 234.335 193.85 234.391C193.761 234.447 193.658 234.477 193.553 234.478H186.179V272.356C186.18 272.502 186.123 272.641 186.023 272.746C185.922 272.851 185.785 272.913 185.64 272.918ZM161.496 271.794H185.1V233.916C185.1 233.767 185.16 233.624 185.265 233.518C185.37 233.413 185.513 233.354 185.662 233.354H192.406L173.298 209.289L154.19 233.354H160.934C161.083 233.354 161.226 233.413 161.332 233.518C161.437 233.624 161.496 233.767 161.496 233.916V271.794Z" fill="#4361EE"/>
<path d="M224.98 415.385H200.252C200.103 415.385 199.96 415.326 199.855 415.221C199.749 415.115 199.69 414.972 199.69 414.823V376.945H192.317C192.211 376.944 192.108 376.914 192.019 376.858C191.93 376.802 191.858 376.721 191.813 376.626C191.767 376.532 191.749 376.426 191.76 376.321C191.772 376.216 191.813 376.117 191.878 376.034L212.166 350.508C212.22 350.444 212.287 350.393 212.363 350.358C212.439 350.323 212.521 350.304 212.605 350.304C212.688 350.304 212.771 350.323 212.846 350.358C212.922 350.393 212.989 350.444 213.043 350.508L233.331 376.034C233.397 376.118 233.438 376.218 233.449 376.324C233.46 376.43 233.441 376.536 233.394 376.632C233.347 376.727 233.274 376.807 233.183 376.862C233.093 376.918 232.988 376.946 232.882 376.945H225.519V414.823C225.52 414.969 225.463 415.108 225.363 415.213C225.262 415.318 225.125 415.38 224.98 415.385ZM200.836 414.261H224.44V376.383C224.44 376.234 224.5 376.091 224.605 375.985C224.71 375.88 224.853 375.821 225.002 375.821H231.746L212.638 351.756L193.53 375.821H200.274C200.423 375.821 200.566 375.88 200.672 375.985C200.777 376.091 200.836 376.234 200.836 376.383V414.261Z" fill="#4361EE"/>
<path d="M285.496 484.062C348.814 484.062 400.144 478.109 400.144 470.765C400.144 463.421 348.814 457.468 285.496 457.468C222.178 457.468 170.848 463.421 170.848 470.765C170.848 478.109 222.178 484.062 285.496 484.062Z" fill="#4CC9F0"/>
<path opacity="0.5" d="M285.496 484.062C348.814 484.062 400.144 478.109 400.144 470.765C400.144 463.421 348.814 457.468 285.496 457.468C222.178 457.468 170.848 463.421 170.848 470.765C170.848 478.109 222.178 484.062 285.496 484.062Z" fill="white"/>
<path d="M358.859 151.639C360.397 143.449 359.483 134.987 356.231 127.314C352.979 119.641 347.534 113.1 340.578 108.509C333.623 103.919 325.468 101.484 317.134 101.511C308.801 101.537 300.661 104.023 293.735 108.657C288.704 96.429 279.586 86.3257 267.936 80.0717C256.286 73.8178 242.827 71.8008 229.856 74.3651C216.884 76.9294 205.205 83.916 196.811 94.1324C188.417 104.349 183.829 117.162 183.83 130.384C183.83 131.092 183.83 131.789 183.83 132.486C175.63 134.823 168.482 139.908 163.586 146.89C158.69 153.871 156.342 162.323 156.938 170.829C157.534 179.335 161.036 187.378 166.857 193.609C172.678 199.84 180.465 203.88 188.911 205.051V205.445H357.039C363.869 205.208 370.355 202.387 375.186 197.552C380.017 192.717 382.833 186.228 383.064 179.397C383.295 172.567 380.925 165.903 376.432 160.752C371.939 155.601 365.658 152.348 358.859 151.65V151.639Z" fill="#263238" stroke="#263238" stroke-linecap="round" stroke-linejoin="round"/>
<path d="M358.859 146.581C360.397 138.391 359.483 129.929 356.231 122.256C352.979 114.583 347.534 108.042 340.578 103.451C333.623 98.8611 325.468 96.4264 317.134 96.4527C308.801 96.479 300.661 98.965 293.735 103.599C288.705 91.3719 279.587 81.2692 267.939 75.0151C256.29 68.761 242.832 66.7432 229.861 69.306C216.891 71.8689 205.211 78.8535 196.817 89.0679C188.422 99.2823 183.832 112.093 183.83 125.315C183.83 126.023 183.83 126.72 183.83 127.417C175.63 129.754 168.482 134.839 163.586 141.82C158.69 148.802 156.342 157.254 156.938 165.76C157.534 174.266 161.036 182.309 166.857 188.54C172.678 194.771 180.465 198.81 188.911 199.982V200.376H357.039C363.869 200.139 370.355 197.318 375.186 192.483C380.017 187.648 382.833 181.159 383.064 174.328C383.295 167.497 380.925 160.833 376.432 155.683C371.939 150.532 365.658 147.279 358.859 146.581Z" fill="#DAF6FF" stroke="#263238" stroke-linecap="round" stroke-linejoin="round"/>
<path d="M300.558 297.253L293.488 300.962C293.488 300.962 285.743 304.334 280.685 307.021C275.627 309.707 250.708 328.916 250.708 328.916L245.661 329.253L242.627 331.277C242.627 331.277 237.569 332.288 237.569 333.3C237.569 334.311 238.58 334.637 239.592 334.637C241.114 334.254 242.585 333.691 243.975 332.963C243.975 332.963 240.547 337.976 241.896 337.976C243.849 338.178 245.789 338.489 247.707 338.908C249.938 338.493 252.189 338.193 254.451 338.009C256.137 338.009 260.172 328.916 260.172 328.916C260.172 328.916 289.138 317.463 292.847 314.765C296.556 312.067 307.324 305.335 307.324 305.335L300.558 297.253Z" fill="white" stroke="#263238" stroke-linecap="round" stroke-linejoin="round"/>
<path d="M327.747 269.58L296.174 298.265L305.278 309.044L322.79 302.311L328.849 269.974L327.747 269.58Z" fill="#4361EE" stroke="#263238" stroke-linecap="round" stroke-linejoin="round"/>
<path d="M300.389 294.443L296.174 298.265L305.278 309.044L310.707 306.953L300.389 294.443Z" fill="#263238" stroke="#263238" stroke-linecap="round" stroke-linejoin="round"/>
<path d="M382.857 449.072C382.857 449.072 392.883 459.502 393.906 464.617C394.929 469.731 392.478 474.238 388.387 473.002C384.295 471.765 380.609 459.098 379.586 456.85C378.563 454.602 377.338 452.14 377.338 452.14C377.338 452.14 380.406 448.049 382.857 449.072Z" fill="#4361EE" stroke="#263238" stroke-linecap="round" stroke-linejoin="round"/>
<path d="M393.996 465.167C394.738 470.046 392.321 474.159 388.376 473.035C386.948 472.62 385.577 470.787 384.352 468.539C387.027 464.212 391.332 464.448 393.996 465.167Z" fill="white" stroke="#263238" stroke-linecap="round" stroke-linejoin="round"/>
<path d="M382.958 465.583C385.206 468.652 388.061 471.945 390.219 471.372C392.377 470.799 393.512 466.741 393.906 464.628C394.917 469.731 392.467 474.204 388.387 472.979C386.386 472.406 384.498 469.09 382.958 465.583Z" fill="white" stroke="#263238" stroke-linecap="round" stroke-linejoin="round"/>
<path d="M380.811 454.804C380.811 454.804 385.307 452.343 385.521 453.163C385.734 453.984 381.227 456.232 380.609 456.232C379.991 456.232 379.586 456.029 380.811 454.804Z" fill="white" stroke="#263238" stroke-width="0.5" stroke-linecap="round" stroke-linejoin="round"/>
<path d="M381.834 456.232C381.834 456.232 386.33 453.781 386.544 454.602C386.757 455.422 382.25 457.67 381.632 457.67C381.014 457.67 380.609 457.468 381.834 456.232Z" fill="white" stroke="#263238" stroke-width="0.5" stroke-linecap="round" stroke-linejoin="round"/>
<path d="M382.857 457.67C382.857 457.67 387.353 455.209 387.566 456.029C387.78 456.85 383.273 459.098 382.654 459.098C382.036 459.098 381.632 458.895 382.857 457.67Z" fill="white" stroke="#263238" stroke-width="0.5" stroke-linecap="round" stroke-linejoin="round"/>
<path d="M383.88 459.098C383.88 459.098 388.376 456.647 388.589 457.457C388.803 458.266 384.296 460.525 383.677 460.525C383.059 460.525 382.655 460.323 383.88 459.098Z" fill="white" stroke="#263238" stroke-width="0.5" stroke-linecap="round" stroke-linejoin="round"/>
<path d="M302.075 458.457C302.075 458.457 305.986 463.909 306.335 467C306.683 470.091 304.087 470.169 300.782 469.821C297.478 469.472 293.533 471.911 288.879 471.788C284.226 471.664 278.842 469.63 281.427 467.415C284.012 465.201 290.756 463.38 292.217 462.11C293.09 461.347 293.908 460.524 294.668 459.649L302.075 458.457Z" fill="#4361EE" stroke="#263238" stroke-linecap="round" stroke-linejoin="round"/>
<path d="M281.427 467.415C282.336 466.701 283.333 466.108 284.394 465.651C285.583 466.287 286.629 467.16 287.467 468.215C288.306 469.271 288.921 470.486 289.273 471.788H288.868C284.215 471.664 278.842 469.63 281.427 467.415Z" fill="white" stroke="#263238" stroke-linecap="round" stroke-linejoin="round"/>
<path d="M292.644 461.391C292.644 461.391 297.444 463.897 296.23 464.392C295.016 464.886 291.374 462.076 292.644 461.391Z" fill="white" stroke="#263238" stroke-width="0.5" stroke-linecap="round" stroke-linejoin="round"/>
<path d="M290.779 461.897C290.779 461.897 295.578 464.403 294.364 464.898C293.15 465.392 289.509 462.582 290.779 461.897Z" fill="white" stroke="#263238" stroke-width="0.5" stroke-linecap="round" stroke-linejoin="round"/>
<path d="M289.7 462.638C289.7 462.638 294.499 465.145 293.285 465.639C292.071 466.134 288.43 463.324 289.7 462.638Z" fill="white" stroke="#263238" stroke-width="0.5" stroke-linecap="round" stroke-linejoin="round"/>
<path d="M287.744 463.538C287.744 463.538 292.543 466.044 291.329 466.539C290.116 467.033 286.451 464.212 287.744 463.538Z" fill="white" stroke="#263238" stroke-width="0.5" stroke-linecap="round" stroke-linejoin="round"/>
<path d="M280.888 468.101C284.252 470.082 288.255 470.674 292.049 469.753C295.571 468.979 299.149 468.483 302.749 468.27C303.974 468.234 305.188 468.03 306.357 467.663C306.268 470.102 303.84 470.147 300.737 469.821C297.433 469.461 293.488 471.911 288.834 471.788C284.698 471.675 279.977 470.034 280.888 468.101Z" fill="white" stroke="#263238" stroke-linecap="round" stroke-linejoin="round"/>
<path d="M351.227 338.324C351.227 338.324 348.867 371.19 350.295 379.159C351.722 387.128 355.24 410.856 355.24 410.856C355.24 410.856 360.568 414.745 365.884 423.332C371.201 431.919 382.857 449.105 382.857 449.105C382.857 449.105 383.273 452.174 379.586 453.197C379.586 453.197 377.743 454.017 376.72 453.197C375.697 452.376 340.752 420.061 336.627 413.317C332.502 406.573 327.016 365.075 327.016 365.075L321.7 364.052L299.22 407.012L303.131 459.233C303.131 459.233 303.435 461.031 300.883 461.762C298.332 462.492 296.275 462.751 294.746 461.436C293.218 460.121 281.382 402.932 282.382 400.886C283.383 398.84 306.065 342.618 306.065 342.618L307.897 337.919C307.897 337.919 329.377 340.37 338.987 338.526C348.597 336.683 350.418 335.222 351.227 338.324Z" fill="#263238" stroke="#263238" stroke-linecap="round" stroke-linejoin="round"/>
<path d="M321.7 364.019L310.033 360.545" stroke="white" stroke-linecap="round" stroke-linejoin="round"/>
<path d="M320.463 364.637L304.514 362.793" stroke="white" stroke-linecap="round" stroke-linejoin="round"/>
<path d="M347.563 344.686C347.563 344.686 338.931 350.193 347.563 353.869" stroke="white" stroke-linecap="round" stroke-linejoin="round"/>
<path d="M323.127 346.934L321.801 352.239L318.249 355.791L322.678 359.77" stroke="white" stroke-linecap="round" stroke-linejoin="round"/>
<path d="M373.696 284.057C365.828 277.673 356.061 269.962 356.061 269.962C356.061 269.962 335.345 269.49 327.747 269.58L317.069 303.66C317.069 303.66 307.256 337.605 307.661 339.043C308.066 340.482 315.035 343.742 330.579 345.585C346.124 347.428 352.666 340.887 353.059 338.841C353.229 336.988 353.092 335.12 352.655 333.311L357.971 323.903L375.562 294.971C376.623 293.234 377.019 291.171 376.676 289.164C376.333 287.158 375.274 285.343 373.696 284.057Z" fill="#4361EE" stroke="#263238" stroke-linecap="round" stroke-linejoin="round"/>
<path d="M367.548 279.078C361.523 274.245 356.094 269.962 356.094 269.962C356.094 269.962 349.215 269.805 341.943 269.693C340.1 273.896 336.919 282.484 339.538 286.732C342.73 291.97 353.284 293.533 367.548 279.078Z" fill="#263238" stroke="#263238" stroke-linecap="round" stroke-linejoin="round"/>
<path d="M358.185 234.916C358.185 234.916 352.262 236.557 349.8 240.233C347.338 243.908 340.19 265.399 340.392 267.209C340.594 269.018 349.8 267.209 349.8 267.209C349.8 267.209 343.461 280.505 343.461 282.753C343.461 285.001 346.327 286.238 350.002 285.417C353.678 284.597 366.233 263.016 366.233 263.016C366.233 263.016 369.953 267.332 372.303 265.848C375 264.151 374.146 260.734 372.1 260.734C370.054 260.734 377.821 252.349 375.169 246.83C372.516 241.312 360.647 233.084 358.185 234.916Z" fill="white" stroke="#263238" stroke-linecap="round" stroke-linejoin="round"/>
<path d="M355.937 228.386C355.937 228.386 344.483 228.386 343.865 233.904C343.247 239.423 349.193 241.885 355.735 240.862C362.276 239.839 368.211 240.244 369.031 241.267C369.852 242.289 361.051 244.335 363.097 245.763C364.286 246.617 365.725 247.051 367.188 246.999C367.188 246.999 364.322 247.808 364.524 249.854C364.727 251.9 366.514 260.937 367.896 260.937C369.279 260.937 372.055 260.757 372.055 260.757C374.645 259.454 376.997 257.725 379.013 255.643C382.081 252.372 382.89 245.414 379.013 241.334C375.135 237.254 372.055 233.286 368.987 230.015C365.918 226.745 363.052 223.271 356.915 222.451C350.778 221.63 347.552 224.081 355.937 228.386Z" fill="#263238" stroke="#263238" stroke-linecap="round" stroke-linejoin="round"/>
<path d="M379.822 249.528C380.033 250.726 380.075 251.949 379.946 253.159" stroke="white" stroke-linecap="round" stroke-linejoin="round"/>
<path d="M358.803 234.837C358.803 234.837 346.248 236.062 350.935 238.457C355.622 240.851 362.939 236.366 372.078 239.985C373.619 240.542 375.027 241.416 376.21 242.55C377.393 243.685 378.325 245.055 378.945 246.572" stroke="white" stroke-linecap="round" stroke-linejoin="round"/>
<path d="M366.424 244.369C366.424 244.369 375 248.561 376.135 254.653" stroke="white" stroke-linecap="round" stroke-linejoin="round"/>
<path d="M349.8 267.242C349.8 267.242 359.624 266.635 362.276 264.387" stroke="#263238" stroke-linecap="round" stroke-linejoin="round"/>
<path d="M346.731 259.06C346.731 259.06 353.891 261.105 355.937 256.812" stroke="#263238" stroke-linecap="round" stroke-linejoin="round"/>
<path d="M354.712 255.991L357.78 257.227" stroke="#263238" stroke-linecap="round" stroke-linejoin="round"/>
<path d="M348.98 249.652C348.98 249.652 342.64 250.472 342.64 251.495C342.64 252.518 346.732 255.384 346.732 255.384" fill="white"/>
<path d="M348.98 249.652C348.98 249.652 342.64 250.472 342.64 251.495C342.64 252.518 346.732 255.384 346.732 255.384" stroke="#263238" stroke-linecap="round" stroke-linejoin="round"/>
<path d="M349.789 247.685C349.496 248.573 348.901 249.168 348.451 249.022C348.002 248.876 347.889 248.044 348.193 247.156C348.496 246.268 349.081 245.673 349.53 245.819C349.98 245.965 350.092 246.808 349.789 247.685Z" fill="#263238"/>
<path d="M355.184 250.416C354.881 251.304 354.285 251.9 353.846 251.754C353.408 251.607 353.284 250.764 353.577 249.888C353.869 249.011 354.476 248.404 354.914 248.55C355.353 248.696 355.465 249.528 355.184 250.416Z" fill="#263238"/>
<path d="M355.465 244.605C355.465 244.605 358.567 244.886 358.275 249.101L355.465 244.605Z" fill="#263238" stroke="#263238" stroke-linecap="round" stroke-linejoin="round"/>
<path d="M352.655 242.638C352.655 242.638 350.958 240.39 348.71 243.481L352.655 242.638Z" fill="#263238" stroke="#263238" stroke-linecap="round" stroke-linejoin="round"/>
<path d="M296.208 167.824L266.602 130.564L237.007 167.824H248.584V223.923H284.63V167.824H296.208Z" fill="#263238" stroke="#263238" stroke-linecap="round" stroke-linejoin="round"/>
<path d="M296.208 165.408L266.602 128.147L237.007 165.408H248.584V221.507H284.63V165.408H296.208Z" fill="white" stroke="#263238" stroke-linecap="round" stroke-linejoin="round"/>
<path d="M324.341 215.179H203.95V335.57H324.341V215.179Z" fill="white" stroke="#263238" stroke-linecap="round" stroke-linejoin="round"/>
<path d="M318.744 220.776H209.547V329.973H318.744V220.776Z" fill="#263238" stroke="#263238" stroke-linecap="round" stroke-linejoin="round"/>
<path d="M293.42 257.542L267.95 284.158L248.123 278.606C247.146 278.334 246.12 278.285 245.122 278.464C244.123 278.643 243.178 279.045 242.357 279.64L209.547 303.48V330.018H318.744V273.818L303.12 257.531C302.49 256.881 301.736 256.364 300.903 256.011C300.069 255.659 299.173 255.477 298.268 255.478C297.363 255.48 296.467 255.663 295.634 256.017C294.801 256.372 294.048 256.89 293.42 257.542Z" fill="white" stroke="#263238" stroke-linecap="round" stroke-linejoin="round"/>
<path d="M262.782 255.385C265.672 248.345 262.308 240.294 255.267 237.404C248.227 234.513 240.176 237.878 237.286 244.918C234.396 251.959 237.76 260.009 244.8 262.899C251.841 265.79 259.891 262.425 262.782 255.385Z" fill="white" stroke="#263238" stroke-linecap="round" stroke-linejoin="round"/>
<path d="M358.657 289.261L328.568 320.194L282.708 332.828C282.708 332.828 278.617 328.073 275.672 328.039C272.727 328.006 263.241 331.411 263.241 331.411C263.241 331.411 262.038 334.356 264.365 334.379C266.757 334.21 269.13 333.834 271.457 333.255L258.452 335.503C258.609 336.493 259.112 337.395 259.871 338.05C260.631 338.704 261.598 339.068 262.6 339.077H268.456L278.471 340.347L287.946 337.481C287.946 337.481 332.839 332.592 335.21 332.018C337.582 331.445 375.674 298.748 375.674 298.748C375.674 298.748 379.979 294.96 378.338 290.565C376.697 286.17 368.301 283.057 368.301 283.057" fill="white"/>
<path d="M358.657 289.261L328.568 320.194L282.708 332.828C282.708 332.828 278.617 328.073 275.672 328.039C272.727 328.006 263.241 331.411 263.241 331.411C263.241 331.411 262.038 334.356 264.365 334.379C266.757 334.21 269.13 333.834 271.457 333.255L258.452 335.503C258.609 336.493 259.112 337.395 259.871 338.05C260.631 338.704 261.598 339.068 262.6 339.077H268.456L278.471 340.347L287.946 337.481C287.946 337.481 332.839 332.592 335.21 332.018C337.582 331.445 375.674 298.748 375.674 298.748C375.674 298.748 379.979 294.96 378.338 290.565C376.697 286.17 368.301 283.057 368.301 283.057" stroke="#263238" stroke-linecap="round" stroke-linejoin="round"/>
<path d="M353.228 292.487L330.287 315.496L347.316 327.781L376.9 299.917C378.344 298.565 379.281 296.759 379.557 294.801C379.833 292.842 379.431 290.847 378.417 289.149L378.316 288.992C376.194 285.627 373.194 282.907 369.639 281.124" fill="#4361EE"/>
<path d="M353.228 292.487L330.287 315.496L347.316 327.781L376.9 299.917C378.344 298.565 379.281 296.759 379.557 294.801C379.833 292.842 379.431 290.847 378.417 289.149L378.316 288.992C376.194 285.627 373.194 282.907 369.639 281.124" stroke="#263238" stroke-linecap="round" stroke-linejoin="round"/>
<path d="M347.361 327.781L351.362 324.004L334.244 311.528L330.287 315.496L347.361 327.781Z" fill="#263238" stroke="#263238" stroke-linecap="round" stroke-linejoin="round"/>
<path d="M237.569 333.3L241.896 337.976L246.089 338.436L239.581 332.861L237.569 333.3Z" fill="white" stroke="#263238" stroke-linecap="round" stroke-linejoin="round"/>
<path d="M245.706 333.3L250.034 337.976L254.215 338.436L247.707 332.861L245.706 333.3Z" fill="white" stroke="#263238" stroke-linecap="round" stroke-linejoin="round"/>
<path d="M246.088 338.436L241.199 332.164H244.223L250.27 338.436L247.707 338.908L246.088 338.436Z" fill="white" stroke="#263238" stroke-linecap="round" stroke-linejoin="round"/>
<path d="M235.86 333.794L237.951 337.74L241.896 337.976L237.569 333.3L235.86 333.794Z" fill="white" stroke="#263238" stroke-linecap="round" stroke-linejoin="round"/>
</svg>
